<svg width="13" height="13" viewBox="0 0 13 13" fill="none" xmlns="http://www.w3.org/2000/svg">
<g clip-path="url(#clip0)">
<path d="M10.7 12.6C11.6 12.3 12.3 11.6 12.6 10.7C12.8 10.3 12.9 9.8 12.9 9.1C12.9 8.9 12.9 8.8 12.9 8.7V4.1C12.9 4 12.9 3.9 12.9 3.8C12.9 3.1 12.8 2.6 12.6 2.2C12.4 1.8 12.2 1.4 11.9 1C11.6 0.7 11.2 0.4 10.8 0.3C10.3 0.2 9.9 0.1 9.2 0C8.5 0 8.2 0 6.5 0C4.7 0 4.5 0 3.8 0C3.1 0 2.6 0.1 2.2 0.3C1.8 0.5 1.4 0.8 1.1 1.1C0.8 1.4 0.5 1.8 0.3 2.2C0.2 2.7 0.1 3.1 0 3.8C0 4.5 0 4.7 0 6.5C0 8.3 0 8.5 0 9.2C0 9.9 0.1 10.4 0.3 10.8C0.5 11.2 0.7 11.6 1.1 12C1.4 12.3 1.8 12.6 2.2 12.7C2.6 12.9 3.1 13 3.8 13C4.5 13 4.7 13 6.5 13C8.3 13 8.5 13 9.2 13C9.8 12.9 10.3 12.8 10.7 12.6ZM6.5 11.8C4.8 11.8 4.6 11.8 3.9 11.8C3.3 11.8 2.9 11.7 2.7 11.6C2.4 11.5 2.2 11.3 2 11.1C1.8 10.9 1.6 10.6 1.5 10.4C1.4 10.2 1.3 9.8 1.3 9.2C1.3 8.5 1.3 8.3 1.3 6.6C1.3 4.9 1.3 4.7 1.3 4C1.3 3.4 1.4 3 1.5 2.8C1.6 2.5 1.8 2.3 2 2.1C2.2 1.9 2.5 1.7 2.7 1.6C2.9 1.5 3.3 1.4 3.9 1.4C4.6 1.4 4.8 1.4 6.5 1.4C8.2 1.4 8.4 1.4 9.1 1.4C9.7 1.4 10.1 1.5 10.3 1.6C10.6 1.7 10.8 1.9 11 2.1C11.2 2.3 11.4 2.6 11.5 2.8C11.6 3 11.7 3.4 11.7 4C11.7 4.7 11.7 4.9 11.7 6.6C11.7 8.3 11.7 8.5 11.7 9.2C11.7 9.8 11.6 10.2 11.5 10.4C11.3 11 10.8 11.4 10.3 11.6C10.1 11.7 9.7 11.8 9.1 11.8C8.4 11.8 8.2 11.8 6.5 11.8Z" fill="#E77832"/>
<path d="M6.49995 3.19922C4.69995 3.19922 3.19995 4.69922 3.19995 6.49922C3.19995 8.29922 4.69995 9.79922 6.49995 9.79922C8.29995 9.79922 9.79995 8.29922 9.79995 6.49922C9.79995 4.59922 8.29995 3.19922 6.49995 3.19922ZM6.49995 8.59922C5.29995 8.59922 4.29995 7.59922 4.29995 6.39922C4.29995 5.19922 5.29995 4.19922 6.49995 4.19922C7.69995 4.19922 8.69995 5.19922 8.69995 6.39922C8.59995 7.69922 7.69995 8.59922 6.49995 8.59922Z" fill="#E77832"/>
<path d="M10.7 2.99922C10.7 2.59922 10.4 2.19922 9.89995 2.19922C9.49995 2.19922 9.19995 2.59922 9.19995 2.99922C9.19995 3.39922 9.49995 3.79922 9.99995 3.79922C10.4 3.79922 10.7 3.49922 10.7 2.99922Z" fill="#E77832"/>
</g>
<defs>
<clipPath id="clip0">
<rect width="12.9" height="13" fill="white"/>
</clipPath>
</defs>
</svg>
