<?xml version="1.0" encoding="UTF-8" standalone="no"?>
<!-- Created with Inkscape (http://www.inkscape.org/) -->

<svg
   version="1.1"
   id="svg9"
   width="131.07568"
   height="230.98399"
   viewBox="0 0 131.07568 230.98399"
   sodipodi:docname="logo_RGB_HF.ai"
   xmlns:inkscape="http://www.inkscape.org/namespaces/inkscape"
   xmlns:sodipodi="http://sodipodi.sourceforge.net/DTD/sodipodi-0.dtd"
   xmlns="http://www.w3.org/2000/svg"
   xmlns:svg="http://www.w3.org/2000/svg">
  <defs
     id="defs13">
    <clipPath
       clipPathUnits="userSpaceOnUse"
       id="clipPath409">
      <path
         d="M 0,173.238 H 98.307 V 0 H 0 Z"
         id="path407" />
    </clipPath>
  </defs>
  <sodipodi:namedview
     id="namedview11"
     pagecolor="#ffffff"
     bordercolor="#000000"
     borderopacity="0.25"
     inkscape:showpageshadow="2"
     inkscape:pageopacity="0.0"
     inkscape:pagecheckerboard="0"
     inkscape:deskcolor="#d1d1d1"
     showgrid="false" />
  <g
     id="g397"
     inkscape:groupmode="layer"
     inkscape:label="Page 5"
     transform="matrix(1.3333333,0,0,-1.3333333,-7.1595059e-5,230.984)">
    <g
       id="g399"
       transform="translate(62.0061,148.7224)">
      <path
         d="M 0,0 H 11.576 V -3.456 H 6.284 v -4.598 h 5.292 V -11.51 H 0 v 3.456 h 5.457 v 4.598 H 0 Z"
         style="fill:#000000;fill-opacity:1;fill-rule:nonzero;stroke:none"
         id="path401" />
    </g>
    <g
       id="g403">
      <g
         id="g405"
         clip-path="url(#clipPath409)">
        <g
           id="g411"
           transform="translate(62.6181,127.7394)">
          <path
             d="m 0,0 c 0,-2.282 1.67,-3.225 5.159,-3.225 3.39,0 5.177,0.943 5.177,3.225 0,2.265 -1.753,3.208 -5.144,3.208 C 1.637,3.208 0,2.265 0,0 m -0.777,0 c 0,4.084 2.331,6.829 5.953,6.829 3.605,0 5.936,-2.745 5.936,-6.829 0,-4.101 -2.348,-6.863 -5.953,-6.863 -3.605,0 -5.936,2.762 -5.936,6.863"
             style="fill:#000000;fill-opacity:1;fill-rule:nonzero;stroke:none"
             id="path413" />
        </g>
        <g
           id="g415"
           transform="translate(73.5818,115.5373)">
          <path
             d="M 0,0 -8.698,-6.962 H 0 v -0.976 h -11.576 v 2.795 l 8.12,6.665 c 0.132,0.115 0.248,0.215 0.38,0.297 h -8.5 V 2.794 H 0 Z"
             style="fill:#000000;fill-opacity:1;fill-rule:nonzero;stroke:none"
             id="path417" />
        </g>
        <g
           id="g419"
           transform="translate(67.8433,105.1047)">
          <path
             d="m 0,0 c 3.969,0 5.887,-3.076 5.887,-7.475 0,-2.728 -0.926,-3.754 -1.786,-4.58 l -0.347,0.397 c 0.81,0.876 1.207,2.05 1.207,3.687 0,2.415 -1.538,4.233 -4.961,4.233 -3.257,0 -5.176,-1.322 -5.176,-3.819 0,-0.298 0.017,-0.678 0.067,-1.059 h 3.637 v 2.332 h 0.827 v -5.771 h -4.613 c -0.43,0.777 -0.745,2.827 -0.745,4.647 C -6.003,-2.481 -3.687,0 0,0"
             style="fill:#000000;fill-opacity:1;fill-rule:nonzero;stroke:none"
             id="path421" />
        </g>
        <g
           id="g423"
           transform="translate(55.0161,148.3918)">
          <path
             d="m 0,0 v -8.335 h -0.827 v 4.879 H -5.573 V -6.813 H -6.4 v 3.357 h -5.176 V 0 Z"
             style="fill:#000000;fill-opacity:1;fill-rule:nonzero;stroke:none"
             id="path425" />
        </g>
        <g
           id="g427"
           transform="translate(44.052,132.0019)">
          <path
             d="m 0,0 c 0,-2.282 1.67,-3.225 5.16,-3.225 3.389,0 5.176,0.943 5.176,3.225 0,2.265 -1.754,3.208 -5.143,3.208 C 1.637,3.208 0,2.265 0,0 m -0.777,0 c 0,4.085 2.331,6.829 5.953,6.829 3.605,0 5.937,-2.744 5.937,-6.829 0,-4.101 -2.348,-6.863 -5.953,-6.863 -3.606,0 -5.937,2.762 -5.937,6.863"
             style="fill:#000000;fill-opacity:1;fill-rule:nonzero;stroke:none"
             id="path429" />
        </g>
        <g
           id="g431"
           transform="translate(55.0161,113.0565)">
          <path
             d="m 0,0 v -1.091 h -7.574 c -2.381,0 -4.151,1.785 -4.151,5.241 0,3.473 1.77,5.226 4.151,5.226 H 0 V 5.969 h -7.244 c -1.438,0 -2.992,-0.71 -2.992,-2.992 C -10.236,0.678 -8.682,0 -7.244,0 Z"
             style="fill:#000000;fill-opacity:1;fill-rule:nonzero;stroke:none"
             id="path433" />
        </g>
        <g
           id="g435"
           transform="translate(55.0161,106.2448)">
          <path
             d="M 0,0 -8.699,-6.962 H 0 v -0.975 h -11.576 v 2.794 l 8.12,6.665 c 0.132,0.115 0.247,0.215 0.38,0.297 h -8.5 V 2.795 H 0 Z"
             style="fill:#000000;fill-opacity:1;fill-rule:nonzero;stroke:none"
             id="path437" />
        </g>
        <g
           id="g439"
           transform="translate(54.1887,91.3327)">
          <path
             d="m 0,0 h -9.921 v -0.529 c 0,-3.01 1.653,-4.498 4.944,-4.498 2.827,0 4.977,1.504 4.977,4.498 z M 0.827,3.456 V -0.48 c 0,-4.911 -2.381,-8.219 -5.821,-8.219 -3.506,0 -5.755,3.325 -5.755,8.219 v 3.936 z"
             style="fill:#000000;fill-opacity:1;fill-rule:nonzero;stroke:none"
             id="path441" />
        </g>
        <g
           id="g443"
           transform="translate(47.6733,79.2228)">
          <path
             d="m 0,0 v -4.547 l 6.119,2.083 z M -0.827,-4.828 V 0.331 L -4.233,1.687 V 2.745 L 7.343,-1.902 V -5.589 L -4.233,-9.542 v 3.539 z"
             style="fill:#000000;fill-opacity:1;fill-rule:nonzero;stroke:none"
             id="path445" />
        </g>
        <g
           id="g447"
           transform="translate(54.1887,66.6418)">
          <path
             d="M 0,0 V 3.257 H 0.827 V -6.416 H 0 v 2.96 H -10.749 V 0 Z"
             style="fill:#000000;fill-opacity:1;fill-rule:nonzero;stroke:none"
             id="path449" />
        </g>
        <path
           d="M 55.016,54.605 H 43.44 v 3.456 h 11.576 z"
           style="fill:#000000;fill-opacity:1;fill-rule:nonzero;stroke:none"
           id="path451" />
        <g
           id="g453"
           transform="translate(44.052,44.8319)">
          <path
             d="m 0,0 c 0,-2.282 1.67,-3.225 5.16,-3.225 3.389,0 5.176,0.943 5.176,3.225 0,2.265 -1.754,3.208 -5.143,3.208 C 1.637,3.208 0,2.265 0,0 m -0.777,0 c 0,4.085 2.331,6.829 5.953,6.829 3.605,0 5.937,-2.744 5.937,-6.829 0,-4.101 -2.348,-6.863 -5.953,-6.863 -3.606,0 -5.937,2.762 -5.937,6.863"
             style="fill:#000000;fill-opacity:1;fill-rule:nonzero;stroke:none"
             id="path455" />
        </g>
        <g
           id="g457"
           transform="translate(55.0161,32.5145)">
          <path
             d="M 0,0 -8.699,-6.962 H 0 v -0.976 h -11.576 v 2.795 l 8.12,6.664 c 0.132,0.116 0.247,0.215 0.38,0.298 h -8.5 V 2.794 H 0 Z"
             style="fill:#000000;fill-opacity:1;fill-rule:nonzero;stroke:none"
             id="path459" />
        </g>
        <g
           id="g461"
           transform="translate(31.9973,139.9824)">
          <path
             d="m 0,0 0.901,0.775 c 1.033,-0.98 1.963,-1.983 2.793,-3.007 L 3.021,-2.78 C 2.141,-1.817 1.134,-0.891 0,0 M -2.069,2.165 H 0.47 V 6 H -2.069 Z M 1.612,5.999 V 2.165 H 3.656 V 1.309 h -8.785 v 0.856 h 1.917 V 5.999 H -4.85 v 0.856 h 1.638 v 2.579 h 1.143 V 6.855 H 0.469 V 9.434 H 1.612 V 6.855 h 1.65 V 5.999 Z M -2.526,0.815 -1.638,0 c -0.948,-1.069 -1.985,-1.973 -3.11,-2.713 l -0.572,0.628 c 1.033,0.766 1.964,1.733 2.794,2.9 m -2.971,5.907 c -0.686,0.632 -1.422,1.193 -2.209,1.683 l 0.749,0.922 C -6.153,8.668 -5.472,8.008 -4.913,7.35 Z M -8.1,-2.299 c 0.72,1.497 1.304,3.065 1.753,4.704 l 1.066,-0.494 c -0.618,-1.764 -1.308,-3.31 -2.07,-4.638 z m 2.26,5.88 c -0.711,0.597 -1.477,1.123 -2.297,1.577 l 0.698,0.948 c 0.846,-0.623 1.565,-1.251 2.158,-1.883 z"
             style="fill:#000000;fill-opacity:1;fill-rule:nonzero;stroke:none"
             id="path463" />
        </g>
        <path
           d="m 33.318,130.721 h -1.511 v -1.016 h 1.511 z m 0,1.791 h -1.511 v -1.015 h 1.511 z m 1.904,-7.336 h -3.415 v -1.457 h -1.143 v 1.457 h -3.008 v 0.788 h 3.008 v 1.095 h -2.691 v 0.763 h 2.691 v 1.108 h -2.361 v 0.776 h 2.361 v 1.015 h -2.983 v 0.775 h 2.983 v 1.016 h -2.361 v 0.775 h 2.361 v 1.096 h 1.143 v -1.096 h 1.511 0.558 0.559 v -1.791 h 1.053 v -0.775 h -1.053 v -1.015 -0.388 -0.388 h -2.628 v -1.108 h 3.097 v -0.763 h -3.097 v -1.095 h 3.415 z m -7.693,4.316 c -0.034,-1.924 -0.301,-3.439 -0.8,-4.544 -0.017,-0.036 -0.034,-0.071 -0.051,-0.107 0.626,-0.686 1.397,-1.144 2.31,-1.376 0.652,-0.16 1.481,-0.24 2.489,-0.24 1.405,-0.01 2.784,0.062 4.138,0.213 l -0.177,-0.949 c -1.219,-0.124 -2.527,-0.187 -3.923,-0.187 -0.999,0.009 -1.879,0.094 -2.641,0.254 -1.058,0.241 -1.942,0.722 -2.653,1.444 -0.457,-0.713 -1.045,-1.364 -1.764,-1.952 l -0.521,0.655 c 0.702,0.669 1.244,1.358 1.625,2.071 -0.559,0.731 -1.05,1.555 -1.473,2.473 l 0.8,0.428 c 0.313,-0.713 0.673,-1.359 1.079,-1.938 0.245,0.775 0.398,1.746 0.457,2.913 h -2.069 v 0.842 c 0.719,1.015 1.384,2.031 1.993,3.047 h -2.145 v 0.841 h 3.414 v -0.841 c -0.634,-0.998 -1.337,-2.014 -2.107,-3.047 h 0.939 0.534 z"
           style="fill:#000000;fill-opacity:1;fill-rule:nonzero;stroke:none"
           id="path465" />
        <g
           id="g467"
           transform="translate(26.6399,114.7795)">
          <path
             d="M 0,0 H 6.436 C 5.243,0.748 4.21,1.661 3.339,2.739 2.323,1.661 1.21,0.748 0,0 M 8.531,-7.363 H -2.234 v 0.855 h 4.798 v 2.579 h -3.745 v 0.815 h 3.745 v 2.285 h -2.665 v 0.762 c -0.661,-0.401 -1.351,-0.753 -2.07,-1.056 l -0.432,0.708 c 1.947,0.891 3.61,2.134 4.99,3.729 H -0.355 V 4.129 H 2.361 2.983 3.681 C 4.959,2.178 6.716,0.673 8.95,-0.388 L 8.544,-1.096 C 7.807,-0.784 7.117,-0.428 6.475,-0.027 V -0.829 H 3.732 v -2.285 h 3.72 v -0.815 h -3.72 v -2.579 h 4.799 z"
             style="fill:#000000;fill-opacity:1;fill-rule:nonzero;stroke:none"
             id="path469" />
        </g>
        <path
           d="m 32.124,98.637 h -4.71 v -1.042 h 4.71 z m 0,1.723 h -4.71 v -0.989 h 4.71 z m 0,1.738 h -4.71 v -0.989 h 4.71 z M 30.36,96.391 v -1.202 h 2.653 c -0.576,0.463 -1.071,1.007 -1.485,1.63 h -3.441 c -0.423,-0.606 -0.935,-1.149 -1.536,-1.63 h 2.666 v 1.202 z m -2.946,6.482 h 4.71 v 1.216 h 1.155 v -1.216 h 1.739 v -0.775 h -1.739 v -4.504 h 2.044 v -0.775 h -2.564 c 0.728,-0.98 1.684,-1.706 2.869,-2.178 l -0.406,-0.668 c -0.821,0.302 -1.545,0.699 -2.171,1.189 V 94.387 H 30.36 v -1.31 h 4.608 V 92.249 H 24.622 v 0.828 h 4.595 v 1.31 h -2.692 v 0.775 c -0.617,-0.49 -1.328,-0.914 -2.132,-1.269 l -0.457,0.654 c 1.201,0.562 2.158,1.319 2.869,2.272 h -2.577 v 0.775 h 2.082 v 4.504 h -1.752 v 0.775 h 1.752 v 1.216 h 1.104 z"
           style="fill:#000000;fill-opacity:1;fill-rule:nonzero;stroke:none"
           id="path471" />
        <g
           id="g473"
           transform="translate(32.8477,81.0637)">
          <path
             d="M 0,0 1.041,-0.481 C 0.635,-1.292 0.14,-2.076 -0.445,-2.833 l -0.71,0.334 C -0.707,-1.706 -0.322,-0.873 0,0 M -6.106,4.036 H 0.076 C -1.041,4.713 -2.095,5.511 -3.085,6.428 -4.016,5.511 -5.023,4.713 -6.106,4.036 m -0.978,-4.477 1.079,0.401 c 0.373,-0.837 0.681,-1.666 0.927,-2.486 l -0.736,-0.24 c -0.347,0.775 -0.771,1.55 -1.27,2.325 m 9.61,-3.527 H -8.671 v 0.828 h 5.015 v 3.568 h -4.202 v 0.828 h 4.202 V 3.208 H -6.284 V 3.929 C -7.003,3.492 -7.757,3.105 -8.544,2.767 l -0.431,0.721 c 2.353,1.078 4.329,2.619 5.928,4.624 L -1.942,7.631 C -2.061,7.488 -2.184,7.35 -2.311,7.217 -0.787,5.648 0.948,4.419 2.894,3.528 L 2.437,2.834 C 1.642,3.172 0.876,3.559 0.14,3.996 V 3.208 H -2.488 V 1.256 H 1.714 V 0.428 H -2.488 V -3.14 h 5.014 z"
             style="fill:#000000;fill-opacity:1;fill-rule:nonzero;stroke:none"
             id="path475" />
        </g>
        <g
           id="g477"
           transform="translate(31.1086,67.7946)">
          <path
             d="M 0,0 C 0.338,0.445 0.635,0.922 0.889,1.43 L 1.727,0.895 C 1.388,0.45 1.011,0.022 0.597,-0.388 H 2.386 V 1.43 H -0.762 V -0.388 H 0.559 Z M -3.389,3.581 H 0.698 C -0.038,3.946 -0.745,4.352 -1.422,4.797 -2.04,4.352 -2.696,3.946 -3.389,3.581 m 5.014,-7.697 h -5.89 v -0.882 h 5.89 z m -5.891,0.708 h 5.89 v 0.869 h -5.89 z m 0.737,4.838 c 0.33,-0.49 0.618,-0.972 0.863,-1.443 l -0.61,-0.375 c -0.321,0.455 -0.689,0.891 -1.104,1.31 l 0.8,0.508 h -1.46 v -1.818 h 3.161 V 1.43 Z M -5.434,-1.79 H 1.625 2.209 2.793 V -6.361 H 1.625 v 0.615 h -5.891 v -0.601 h -1.168 v 3.808 0.374 z m 0.394,3.928 h 7.426 0.559 0.558 v -2.526 -0.36 -0.361 h -9.66 v 0.361 0.36 2.526 h 0.559 z m -2.311,0.668 c 2.396,0.82 4.389,1.942 5.98,3.367 l 1.142,-0.44 C -0.338,5.635 -0.453,5.537 -0.572,5.439 0.977,4.352 2.721,3.492 4.659,2.86 L 4.342,2.151 C 3.258,2.472 2.225,2.86 1.244,3.314 V 2.887 H -3.898 V 3.328 C -4.879,2.837 -5.929,2.427 -7.046,2.098 Z"
             style="fill:#000000;fill-opacity:1;fill-rule:nonzero;stroke:none"
             id="path479" />
        </g>
      </g>
    </g>
  </g>
</svg>
