<svg width="16" height="12" viewBox="0 0 16 12" fill="none" xmlns="http://www.w3.org/2000/svg">
<path d="M15.5616 1.82178C15.3425 1.16425 14.7945 0.616306 14.137 0.397128C12.9315 0.0683606 7.89041 0.0683594 7.89041 0.0683594C7.89041 0.0683594 2.9589 0.0683606 1.64384 0.397128C0.986301 0.616306 0.438356 1.16425 0.219178 1.82178C0 3.13685 0 5.6574 0 5.6574C0 5.6574 0 8.28754 0.328767 9.49302C0.547945 10.1506 1.09589 10.6985 1.75342 10.9177C2.9589 11.2464 8 11.2464 8 11.2464C8 11.2464 12.9315 11.2464 14.2466 10.9177C14.9041 10.6985 15.4521 10.1506 15.6712 9.49302C16 8.28754 16 5.6574 16 5.6574C16 5.6574 15.8904 3.13685 15.5616 1.82178ZM6.35616 8.06836V3.24644L10.5205 5.6574L6.35616 8.06836Z" fill="#E77832"/>
</svg>
